{
    "asset" : {
        "generator" : "Khronos glTF Blender I/O v0.9.36",
        "version" : "2.0"
    },
    "scene" : 0,
    "scenes" : [
        {
            "name" : "Scene",
            "nodes" : [
                0,
                1,
                2,
                3
            ]
        }
    ],
    "nodes" : [
        {
            "name" : "Light",
            "rotation" : [
                0.19105008244514465,
                0.7059634327888489,
                -0.2572231590747833,
                0.631626307964325
            ],
            "translation" : [
                2.4170479774475098,
                5.903861999511719,
                -0.949333667755127
            ]
        },
        {
            "name" : "Camera",
            "rotation" : [
                0.4991687834262848,
                0.27103105187416077,
                -0.16791310906410217,
                0.8057157397270203
            ],
            "translation" : [
                4.344537734985352,
                4.958309173583984,
                7.415185928344727
            ]
        },
        {
            "mesh" : 0,
            "name" : "Cylinder",
            "rotation" : [
                -0.014638549648225307,
                0.658139705657959,
                0.008529817685484886,
                0.7527052164077759
            ],
            "scale" : [
                7.108074188232422,
                0.6062166690826416,
                5.535439968109131
            ],
            "translation" : [
                0.3083682060241699,
                0.026041269302368164,
                2.702944278717041
            ]
        },
        {
            "mesh" : 1,
            "name" : "Cube",
            "rotation" : [
                -0.01966279186308384,
                0.7020160555839539,
                0.014792184345424175,
                0.7117359042167664
            ],
            "scale" : [
                13.768253326416016,
                0.2847307324409485,
                1.095885157585144
            ],
            "translation" : [
                0.36416101455688477,
                0.3861994743347168,
                -2.4435884952545166
            ]
        }
    ],
    "materials" : [
        {
            "doubleSided" : true,
            "name" : "Material.004",
            "pbrMetallicRoughness" : {
                "baseColorTexture" : {
                    "index" : 0,
                    "texCoord" : 0
                },
                "metallicFactor" : 0,
                "roughnessFactor" : 0.5
            }
        },
        {
            "doubleSided" : true,
            "name" : "Material.005",
            "pbrMetallicRoughness" : {
                "baseColorTexture" : {
                    "index" : 1,
                    "texCoord" : 0
                },
                "metallicFactor" : 0,
                "roughnessFactor" : 0.5
            }
        }
    ],
    "meshes" : [
        {
            "name" : "Cylinder",
            "primitives" : [
                {
                    "attributes" : {
                        "POSITION" : 0,
                        "NORMAL" : 1,
                        "TEXCOORD_0" : 2
                    },
                    "indices" : 3,
                    "material" : 0
                }
            ]
        },
        {
            "name" : "Cube.003",
            "primitives" : [
                {
                    "attributes" : {
                        "POSITION" : 4,
                        "NORMAL" : 5,
                        "TEXCOORD_0" : 6
                    },
                    "indices" : 7,
                    "material" : 1
                }
            ]
        }
    ],
    "textures" : [
        {
            "sampler" : 0,
            "source" : 0
        },
        {
            "sampler" : 1,
            "source" : 1
        }
    ],
    "images" : [
        {
            "bufferView" : 4,
            "mimeType" : "image/jpeg",
            "name" : "bass_body"
        },
        {
            "bufferView" : 9,
            "mimeType" : "image/jpeg",
            "name" : "bass_arm"
        }
    ],
    "accessors" : [
        {
            "bufferView" : 0,
            "componentType" : 5126,
            "count" : 192,
            "max" : [
                0.5952484011650085,
                1.1370869874954224,
                0.7824883460998535
            ],
            "min" : [
                -1.3656888008117676,
                -1.0590051412582397,
                -0.6230412125587463
            ],
            "type" : "VEC3"
        },
        {
            "bufferView" : 1,
            "componentType" : 5126,
            "count" : 192,
            "type" : "VEC3"
        },
        {
            "bufferView" : 2,
            "componentType" : 5126,
            "count" : 192,
            "type" : "VEC2"
        },
        {
            "bufferView" : 3,
            "componentType" : 5123,
            "count" : 372,
            "type" : "SCALAR"
        },
        {
            "bufferView" : 5,
            "componentType" : 5126,
            "count" : 56,
            "max" : [
                1.1669018268585205,
                1.0478485822677612,
                1
            ],
            "min" : [
                -1,
                -1.0001405477523804,
                -1.9086802005767822
            ],
            "type" : "VEC3"
        },
        {
            "bufferView" : 6,
            "componentType" : 5126,
            "count" : 56,
            "type" : "VEC3"
        },
        {
            "bufferView" : 7,
            "componentType" : 5126,
            "count" : 56,
            "type" : "VEC2"
        },
        {
            "bufferView" : 8,
            "componentType" : 5123,
            "count" : 84,
            "type" : "SCALAR"
        }
    ],
    "bufferViews" : [
        {
            "buffer" : 0,
            "byteLength" : 2304,
            "byteOffset" : 0
        },
        {
            "buffer" : 0,
            "byteLength" : 2304,
            "byteOffset" : 2304
        },
        {
            "buffer" : 0,
            "byteLength" : 1536,
            "byteOffset" : 4608
        },
        {
            "buffer" : 0,
            "byteLength" : 744,
            "byteOffset" : 6144
        },
        {
            "buffer" : 0,
            "byteLength" : 24180,
            "byteOffset" : 6888
        },
        {
            "buffer" : 0,
            "byteLength" : 672,
            "byteOffset" : 31068
        },
        {
            "buffer" : 0,
            "byteLength" : 672,
            "byteOffset" : 31740
        },
        {
            "buffer" : 0,
            "byteLength" : 448,
            "byteOffset" : 32412
        },
        {
            "buffer" : 0,
            "byteLength" : 168,
            "byteOffset" : 32860
        },
        {
            "buffer" : 0,
            "byteLength" : 18192,
            "byteOffset" : 33028
        }
    ],
    "samplers" : [
        {
            "magFilter" : 9728,
            "minFilter" : 9984,
            "wrapS" : 33071,
            "wrapT" : 33071
        },
        {
            "magFilter" : 9729,
            "minFilter" : 9986,
            "wrapS" : 33071,
            "wrapT" : 33071
        }
    ],
    "buffers" : [
        {
            "byteLength" : 51220,
            "uri" : "data:application/octet-stream;base64,"
        }
    ]
}
