{
    "asset" : {
        "generator" : "Khronos glTF Blender I/O v0.9.36",
        "version" : "2.0"
    },
    "scene" : 0,
    "scenes" : [
        {
            "name" : "Scene",
            "nodes" : [
                0
            ]
        }
    ],
    "nodes" : [
        {
            "mesh" : 0,
            "name" : "Cylinder.022_0",
            "rotation" : [
                -0.8951266407966614,
                -0.11595440655946732,
                0.05307317152619362,
                0.42718398571014404
            ],
            "scale" : [
                -1.5563563108444214,
                -1.5563576221466064,
                -0.04857004061341286
            ],
            "translation" : [
                4.432313919067383,
                8.470807075500488,
                -2.4827475547790527
            ]
        }
    ],
    "materials" : [
        {
            "doubleSided" : true,
            "emissiveFactor" : [
                0,
                0,
                0
            ],
            "name" : "Cybale_Dore_Mtal_Mate",
            "pbrMetallicRoughness" : {
                "baseColorFactor" : [
                    0.7856623530387878,
                    0.44251152873039246,
                    0.00875436794012785,
                    1
                ],
                "metallicFactor" : 0,
                "roughnessFactor" : 0.43803030252456665
            }
        }
    ],
    "meshes" : [
        {
            "name" : "Cylinder.022_0",
            "primitives" : [
                {
                    "attributes" : {
                        "POSITION" : 0,
                        "NORMAL" : 1
                    },
                    "indices" : 2,
                    "material" : 0
                }
            ]
        }
    ],
    "accessors" : [
        {
            "bufferView" : 0,
            "componentType" : 5126,
            "count" : 48,
            "max" : [
                1,
                1,
                1
            ],
            "min" : [
                -1,
                -1,
                -1
            ],
            "type" : "VEC3"
        },
        {
            "bufferView" : 1,
            "componentType" : 5126,
            "count" : 48,
            "type" : "VEC3"
        },
        {
            "bufferView" : 2,
            "componentType" : 5123,
            "count" : 60,
            "type" : "SCALAR"
        }
    ],
    "bufferViews" : [
        {
            "buffer" : 0,
            "byteLength" : 576,
            "byteOffset" : 0
        },
        {
            "buffer" : 0,
            "byteLength" : 576,
            "byteOffset" : 576
        },
        {
            "buffer" : 0,
            "byteLength" : 120,
            "byteOffset" : 1152
        }
    ],
    "buffers" : [
        {
            "byteLength" : 1272,
            "uri" : "data:application/octet-stream;base64,"
        }
    ]
}
