{
    "asset" : {
        "generator" : "Khronos glTF Blender I/O v0.9.36",
        "version" : "2.0"
    },
    "scene" : 0,
    "scenes" : [
        {
            "name" : "Scene",
            "nodes" : [
                0,
                1,
                2
            ]
        }
    ],
    "nodes" : [
        {
            "mesh" : 0,
            "name" : "Cylinder.021_0",
            "rotation" : [
                0.964095413684845,
                0.0006928980583325028,
                0.0025156724732369184,
                0.26554325222969055
            ],
            "scale" : [
                -1.7707948684692383,
                -0.05525999888777733,
                -1.7707948684692383
            ],
            "translation" : [
                -4.664211273193359,
                8.579090118408203,
                -4.844767093658447
            ]
        },
        {
            "name" : "Light",
            "rotation" : [
                0.16907575726509094,
                0.7558803558349609,
                -0.27217137813568115,
                0.570947527885437
            ],
            "translation" : [
                4.076245307922363,
                5.903861999511719,
                -1.0054539442062378
            ]
        },
        {
            "name" : "Camera",
            "rotation" : [
                0.483536034822464,
                0.33687159419059753,
                -0.20870360732078552,
                0.7804827094078064
            ],
            "translation" : [
                7.358891487121582,
                4.958309173583984,
                6.925790786743164
            ]
        }
    ],
    "materials" : [
        {
            "doubleSided" : true,
            "emissiveFactor" : [
                0,
                0,
                0
            ],
            "name" : "Cybale_Dore_Mtal_Mate.002",
            "pbrMetallicRoughness" : {
                "baseColorFactor" : [
                    0.7856623530387878,
                    0.44251152873039246,
                    0.00875436794012785,
                    1
                ],
                "metallicFactor" : 0,
                "roughnessFactor" : 0.43803030252456665
            }
        }
    ],
    "meshes" : [
        {
            "name" : "Cylinder.021_0",
            "primitives" : [
                {
                    "attributes" : {
                        "POSITION" : 0,
                        "NORMAL" : 1
                    },
                    "indices" : 2,
                    "material" : 0
                }
            ]
        }
    ],
    "accessors" : [
        {
            "bufferView" : 0,
            "componentType" : 5126,
            "count" : 44,
            "max" : [
                1,
                1,
                1
            ],
            "min" : [
                -1,
                -1,
                -1
            ],
            "type" : "VEC3"
        },
        {
            "bufferView" : 1,
            "componentType" : 5126,
            "count" : 44,
            "type" : "VEC3"
        },
        {
            "bufferView" : 2,
            "componentType" : 5123,
            "count" : 60,
            "type" : "SCALAR"
        }
    ],
    "bufferViews" : [
        {
            "buffer" : 0,
            "byteLength" : 528,
            "byteOffset" : 0
        },
        {
            "buffer" : 0,
            "byteLength" : 528,
            "byteOffset" : 528
        },
        {
            "buffer" : 0,
            "byteLength" : 120,
            "byteOffset" : 1056
        }
    ],
    "buffers" : [
        {
            "byteLength" : 1176,
            "uri" : "data:application/octet-stream;base64,"
        }
    ]
}
