{
    "asset" : {
        "generator" : "Khronos glTF Blender I/O v0.9.36",
        "version" : "2.0"
    },
    "scene" : 0,
    "scenes" : [
        {
            "name" : "Scene",
            "nodes" : [
                0,
                1,
                2,
                3
            ]
        }
    ],
    "nodes" : [
        {
            "mesh" : 0,
            "name" : "Cylinder_0",
            "rotation" : [
                0,
                0.9999980926513672,
                0,
                -0.0020010159350931644
            ],
            "scale" : [
                2.2698822021484375,
                2.269880533218384,
                1.9650793075561523
            ],
            "translation" : [
                -0.12338554859161377,
                2.842210054397583,
                -2.1836917400360107
            ]
        },
        {
            "mesh" : 1,
            "name" : "Cylinder_1.001",
            "rotation" : [
                0,
                0.9999980926513672,
                0,
                -0.0020012585446238518
            ],
            "scale" : [
                2.269883632659912,
                2.269881248474121,
                1.9650797843933105
            ],
            "translation" : [
                -0.12338554859161377,
                2.842210054397583,
                -2.1836917400360107
            ]
        },
        {
            "name" : "Light",
            "rotation" : [
                0.16907575726509094,
                0.7558803558349609,
                -0.27217137813568115,
                0.570947527885437
            ],
            "translation" : [
                4.076245307922363,
                5.903861999511719,
                -1.0054539442062378
            ]
        },
        {
            "name" : "Camera",
            "rotation" : [
                0.483536034822464,
                0.33687159419059753,
                -0.20870360732078552,
                0.7804827094078064
            ],
            "translation" : [
                7.358891487121582,
                4.958309173583984,
                6.925790786743164
            ]
        }
    ],
    "materials" : [
        {
            "doubleSided" : true,
            "emissiveFactor" : [
                0,
                0,
                0
            ],
            "name" : "Tb_Peau_Mate.004",
            "pbrMetallicRoughness" : {
                "baseColorFactor" : [
                    0.4200232923030853,
                    0.2938213050365448,
                    0.21176353096961975,
                    1
                ],
                "metallicFactor" : 0,
                "roughnessFactor" : 0.6000000238418579
            }
        },
        {
            "doubleSided" : true,
            "emissiveFactor" : [
                0,
                0,
                0
            ],
            "name" : "Pied_Mtal_Gris_Mate.001",
            "pbrMetallicRoughness" : {
                "baseColorFactor" : [
                    0.8688839673995972,
                    0.8688839673995972,
                    0.8688839673995972,
                    1
                ],
                "metallicFactor" : 0,
                "roughnessFactor" : 0.6000000238418579
            }
        }
    ],
    "meshes" : [
        {
            "name" : "Cylinder_0.002",
            "primitives" : [
                {
                    "attributes" : {
                        "POSITION" : 0,
                        "NORMAL" : 1
                    },
                    "indices" : 2,
                    "material" : 0
                }
            ]
        },
        {
            "name" : "Cylinder_1.001",
            "primitives" : [
                {
                    "attributes" : {
                        "POSITION" : 3,
                        "NORMAL" : 4
                    },
                    "indices" : 5,
                    "material" : 1
                }
            ]
        }
    ],
    "accessors" : [
        {
            "bufferView" : 0,
            "componentType" : 5126,
            "count" : 41,
            "max" : [
                0.9823899865150452,
                0.9823899865150452,
                1.0709199905395508
            ],
            "min" : [
                -0.9823899865150452,
                -0.9823899865150452,
                -1.0286400318145752
            ],
            "type" : "VEC3"
        },
        {
            "bufferView" : 1,
            "componentType" : 5126,
            "count" : 41,
            "type" : "VEC3"
        },
        {
            "bufferView" : 2,
            "componentType" : 5123,
            "count" : 84,
            "type" : "SCALAR"
        },
        {
            "bufferView" : 3,
            "componentType" : 5126,
            "count" : 822,
            "max" : [
                1.0372200012207031,
                1.0372200012207031,
                1.118190050125122
            ],
            "min" : [
                -1.0372200012207031,
                -1.0372200012207031,
                -1.0783499479293823
            ],
            "type" : "VEC3"
        },
        {
            "bufferView" : 4,
            "componentType" : 5126,
            "count" : 822,
            "type" : "VEC3"
        },
        {
            "bufferView" : 5,
            "componentType" : 5123,
            "count" : 1008,
            "type" : "SCALAR"
        }
    ],
    "bufferViews" : [
        {
            "buffer" : 0,
            "byteLength" : 492,
            "byteOffset" : 0
        },
        {
            "buffer" : 0,
            "byteLength" : 492,
            "byteOffset" : 492
        },
        {
            "buffer" : 0,
            "byteLength" : 168,
            "byteOffset" : 984
        },
        {
            "buffer" : 0,
            "byteLength" : 9864,
            "byteOffset" : 1152
        },
        {
            "buffer" : 0,
            "byteLength" : 9864,
            "byteOffset" : 11016
        },
        {
            "buffer" : 0,
            "byteLength" : 2016,
            "byteOffset" : 20880
        }
    ],
    "buffers" : [
        {
            "byteLength" : 22896,
            "uri" : "data:application/octet-stream;base64,"
        }
    ]
}
