{
    "asset" : {
        "generator" : "Khronos glTF Blender I/O v0.9.36",
        "version" : "2.0"
    },
    "scene" : 0,
    "scenes" : [
        {
            "name" : "Scene",
            "nodes" : [
                0,
                1,
                2,
                3,
                4,
                5,
                6
            ]
        }
    ],
    "nodes" : [
        {
            "name" : "Light",
            "rotation" : [
                0.5232754945755005,
                0.34203392267227173,
                -0.7269423604011536,
                0.284166157245636
            ],
            "translation" : [
                4.076245307922363,
                5.903862476348877,
                -1.0054532289505005
            ]
        },
        {
            "name" : "Camera",
            "rotation" : [
                0.8937963247299194,
                0.09062855690717697,
                -0.3857799172401428,
                0.20997287333011627
            ],
            "translation" : [
                7.358891487121582,
                4.958308696746826,
                6.925792217254639
            ]
        },
        {
            "name" : "Light.001",
            "rotation" : [
                -0.5421253442764282,
                -0.5874884724617004,
                -0.4910951852798462,
                0.3460969030857086
            ],
            "translation" : [
                -10.455526351928711,
                5.9038615226745605,
                7.839974403381348
            ]
        },
        {
            "name" : "Camera.001",
            "rotation" : [
                0.8937963247299194,
                0.09062855690717697,
                -0.3857799172401428,
                0.20997287333011627
            ],
            "translation" : [
                12.834632873535156,
                4.958308696746826,
                7.90861701965332
            ]
        },
        {
            "mesh" : 0,
            "name" : "Cube.011_0",
            "rotation" : [
                0.7071067094802856,
                0.00040855060797184706,
                -0.0004085504624526948,
                0.7071065902709961
            ],
            "scale" : [
                7.60042667388916,
                1.6412925720214844,
                2.201350212097168
            ],
            "translation" : [
                -0.018941879272460938,
                6.6229119300842285,
                -1.422527551651001
            ]
        },
        {
            "mesh" : 1,
            "name" : "Cube.011_2.001",
            "rotation" : [
                0.7071067094802856,
                0.00040855060797184706,
                -0.0004085504624526948,
                0.7071065902709961
            ],
            "scale" : [
                7.60042667388916,
                1.6412925720214844,
                2.201350212097168
            ],
            "translation" : [
                -0.009840011596679688,
                4.744218349456787,
                0.08637159317731857
            ]
        },
        {
            "mesh" : 2,
            "name" : "Cube.011_3",
            "rotation" : [
                0.7071068286895752,
                0,
                0,
                0.7071067094802856
            ],
            "scale" : [
                7.600426197052002,
                1.6412925720214844,
                2.201350212097168
            ],
            "translation" : [
                -0.2567787170410156,
                7.375526428222656,
                -1.8589999675750732
            ]
        }
    ],
    "materials" : [
        {
            "doubleSided" : true,
            "emissiveFactor" : [
                0,
                0,
                0
            ],
            "name" : "Piano_Cl_Noir_Mate",
            "pbrMetallicRoughness" : {
                "baseColorFactor" : [
                    0.03106328658759594,
                    0.03106328658759594,
                    0.03106328658759594,
                    1
                ],
                "metallicFactor" : 0,
                "roughnessFactor" : 0.6000000238418579
            }
        }
    ],
    "meshes" : [
        {
            "name" : "Cube.011_0.001",
            "primitives" : [
                {
                    "attributes" : {
                        "POSITION" : 0,
                        "NORMAL" : 1
                    },
                    "indices" : 2,
                    "material" : 0
                }
            ]
        },
        {
            "name" : "Cube.011_2.002",
            "primitives" : [
                {
                    "attributes" : {
                        "POSITION" : 3,
                        "NORMAL" : 4
                    },
                    "indices" : 5,
                    "material" : 0
                }
            ]
        },
        {
            "name" : "Cube.011_3.001",
            "primitives" : [
                {
                    "attributes" : {
                        "POSITION" : 6,
                        "NORMAL" : 7
                    },
                    "indices" : 8,
                    "material" : 0
                }
            ]
        }
    ],
    "accessors" : [
        {
            "bufferView" : 0,
            "componentType" : 5126,
            "count" : 159,
            "max" : [
                0.9207189083099365,
                0.520916223526001,
                0.014288097620010376
            ],
            "min" : [
                -0.9832810759544373,
                -0.3499637246131897,
                -0.010851919651031494
            ],
            "type" : "VEC3"
        },
        {
            "bufferView" : 1,
            "componentType" : 5126,
            "count" : 159,
            "type" : "VEC3"
        },
        {
            "bufferView" : 2,
            "componentType" : 5123,
            "count" : 261,
            "type" : "SCALAR"
        },
        {
            "bufferView" : 3,
            "componentType" : 5126,
            "count" : 585,
            "max" : [
                0.9619008898735046,
                1.3077529668807983,
                2.106900215148926
            ],
            "min" : [
                -1.029589056968689,
                -1.668017029762268,
                -2.064239740371704
            ],
            "type" : "VEC3"
        },
        {
            "bufferView" : 4,
            "componentType" : 5126,
            "count" : 585,
            "type" : "VEC3"
        },
        {
            "bufferView" : 5,
            "componentType" : 5123,
            "count" : 1095,
            "type" : "SCALAR"
        },
        {
            "bufferView" : 6,
            "componentType" : 5126,
            "count" : 92,
            "max" : [
                0.3106350004673004,
                0.31591373682022095,
                0.4390455484390259
            ],
            "min" : [
                -0.3106350004673004,
                -0.48257625102996826,
                -0.8689244985580444
            ],
            "type" : "VEC3"
        },
        {
            "bufferView" : 7,
            "componentType" : 5126,
            "count" : 92,
            "type" : "VEC3"
        },
        {
            "bufferView" : 8,
            "componentType" : 5123,
            "count" : 156,
            "type" : "SCALAR"
        }
    ],
    "bufferViews" : [
        {
            "buffer" : 0,
            "byteLength" : 1908,
            "byteOffset" : 0
        },
        {
            "buffer" : 0,
            "byteLength" : 1908,
            "byteOffset" : 1908
        },
        {
            "buffer" : 0,
            "byteLength" : 522,
            "byteOffset" : 3816
        },
        {
            "buffer" : 0,
            "byteLength" : 7020,
            "byteOffset" : 4340
        },
        {
            "buffer" : 0,
            "byteLength" : 7020,
            "byteOffset" : 11360
        },
        {
            "buffer" : 0,
            "byteLength" : 2190,
            "byteOffset" : 18380
        },
        {
            "buffer" : 0,
            "byteLength" : 1104,
            "byteOffset" : 20572
        },
        {
            "buffer" : 0,
            "byteLength" : 1104,
            "byteOffset" : 21676
        },
        {
            "buffer" : 0,
            "byteLength" : 312,
            "byteOffset" : 22780
        }
    ],
    "buffers" : [
        {
            "byteLength" : 23092,
            "uri" : "piano.bin"
        }
    ]
}
