{
    "asset" : {
        "generator" : "Khronos glTF Blender I/O v0.9.36",
        "version" : "2.0"
    },
    "scene" : 0,
    "scenes" : [
        {
            "name" : "Scene",
            "nodes" : [
                0
            ]
        }
    ],
    "nodes" : [
        {
            "mesh" : 0,
            "name" : "Tom1Surface",
            "rotation" : [
                -0.433147132396698,
                0.09213681519031525,
                -9.920074080582708e-05,
                0.8966015577316284
            ],
            "scale" : [
                1.2882027626037598,
                1.1208034753799438,
                1.2834526300430298
            ],
            "translation" : [
                1.5693315267562866,
                6.706502437591553,
                -2.3418469429016113
            ]
        }
    ],
    "materials" : [
        {
            "doubleSided" : true,
            "name" : "Material.010",
            "pbrMetallicRoughness" : {
                "baseColorTexture" : {
                    "index" : 0,
                    "texCoord" : 0
                },
                "metallicFactor" : 0,
                "roughnessFactor" : 0.5
            }
        }
    ],
    "meshes" : [
        {
            "name" : "Cylinder.008",
            "primitives" : [
                {
                    "attributes" : {
                        "POSITION" : 0,
                        "NORMAL" : 1,
                        "TEXCOORD_0" : 2
                    },
                    "indices" : 3,
                    "material" : 0
                }
            ]
        }
    ],
    "textures" : [
        {
            "source" : 0
        }
    ],
    "images" : [
        {
            "bufferView" : 4,
            "mimeType" : "image/png",
            "name" : "drums_1.png"
        }
    ],
    "accessors" : [
        {
            "bufferView" : 0,
            "componentType" : 5126,
            "count" : 19,
            "max" : [
                0.990399181842804,
                0.95576411485672,
                1.0075457096099854
            ],
            "min" : [
                -0.9903861284255981,
                0.95576411485672,
                -0.9924542903900146
            ],
            "type" : "VEC3"
        },
        {
            "bufferView" : 1,
            "componentType" : 5126,
            "count" : 19,
            "type" : "VEC3"
        },
        {
            "bufferView" : 2,
            "componentType" : 5126,
            "count" : 19,
            "type" : "VEC2"
        },
        {
            "bufferView" : 3,
            "componentType" : 5123,
            "count" : 51,
            "type" : "SCALAR"
        }
    ],
    "bufferViews" : [
        {
            "buffer" : 0,
            "byteLength" : 228,
            "byteOffset" : 0
        },
        {
            "buffer" : 0,
            "byteLength" : 228,
            "byteOffset" : 228
        },
        {
            "buffer" : 0,
            "byteLength" : 152,
            "byteOffset" : 456
        },
        {
            "buffer" : 0,
            "byteLength" : 102,
            "byteOffset" : 608
        },
        {
            "buffer" : 0,
            "byteLength" : 2418920,
            "byteOffset" : 712
        }
    ],
    "buffers" : [
        {
            "byteLength" : 2419632,
            "uri" : "data:application/octet-stream;base64,"
        }
    ]
}
